<svg width="13" height="12" viewBox="0 0 13 12" fill="none" xmlns="http://www.w3.org/2000/svg">
<path d="M12.558 1.33269L8.658 0.0326943H8.6125C8.58224 0.0296533 8.55176 0.0296533 8.5215 0.0326943H8.372H8.2875H8.242L4.55 1.30019L0.858002 0.0326943C0.760252 0.000461771 0.656244 -0.00809627 0.55454 0.00772439C0.452836 0.0235451 0.356343 0.0632922 0.273002 0.123694C0.188995 0.183505 0.120424 0.262445 0.0729548 0.353994C0.0254852 0.445542 0.00047902 0.547072 2.1668e-06 0.650194V9.75019C-0.000349588 9.88646 0.0421345 10.0194 0.121449 10.1302C0.200764 10.241 0.312898 10.3241 0.442002 10.3677L4.342 11.6677C4.47294 11.7104 4.61406 11.7104 4.745 11.6677L8.45 10.4327L12.142 11.7002C12.211 11.7096 12.281 11.7096 12.35 11.7002C12.4859 11.7021 12.6186 11.6586 12.727 11.5767C12.811 11.5169 12.8796 11.4379 12.927 11.3464C12.9745 11.2548 12.9995 11.1533 13 11.0502V1.95019C13.0003 1.81393 12.9579 1.68099 12.8786 1.57018C12.7992 1.45938 12.6871 1.3763 12.558 1.33269ZM3.9 10.1467L1.3 9.28219V1.55369L3.9 2.41819V10.1467ZM7.8 9.28219L5.2 10.1467V2.41819L7.8 1.55369V9.28219ZM11.7 10.1467L9.1 9.28219V1.55369L11.7 2.41819V10.1467Z" fill="#3B3D33"/>
</svg>
