<svg width="13" height="14" viewBox="0 0 13 14" fill="none" xmlns="http://www.w3.org/2000/svg">
<path d="M11.8055 4.07383L7.6389 0.516627C7.25694 0.183931 6.76247 0 6.25002 0C5.73757 0 5.2431 0.183931 4.86114 0.516627L0.694505 4.07383C0.473929 4.26594 0.297911 4.50161 0.17817 4.76515C0.0584291 5.02868 -0.00228648 5.31404 6.58288e-05 5.60221V11.5128C6.58288e-05 12.0509 0.219558 12.567 0.610256 12.9474C1.00095 13.3279 1.53085 13.5417 2.08338 13.5417H10.4167C10.9692 13.5417 11.4991 13.3279 11.8898 12.9474C12.2805 12.567 12.5 12.0509 12.5 11.5128V5.59545C12.5013 5.30841 12.4402 5.02436 12.3204 4.76206C12.2007 4.49976 12.0252 4.26519 11.8055 4.07383ZM7.6389 12.1891H4.86114V8.80775C4.86114 8.62839 4.93431 8.45638 5.06454 8.32955C5.19477 8.20272 5.37141 8.13147 5.55558 8.13147H6.94446C7.12864 8.13147 7.30527 8.20272 7.4355 8.32955C7.56574 8.45638 7.6389 8.62839 7.6389 8.80775V12.1891ZM11.1111 11.5128C11.1111 11.6922 11.0379 11.8642 10.9077 11.991C10.7775 12.1179 10.6008 12.1891 10.4167 12.1891H9.02778V8.80775C9.02778 8.26967 8.80829 7.75363 8.41759 7.37315C8.02689 6.99268 7.49699 6.77893 6.94446 6.77893H5.55558C5.00305 6.77893 4.47315 6.99268 4.08245 7.37315C3.69176 7.75363 3.47226 8.26967 3.47226 8.80775V12.1891H2.08338C1.89921 12.1891 1.72257 12.1179 1.59234 11.991C1.46211 11.8642 1.38894 11.6922 1.38894 11.5128V5.59545C1.38907 5.49942 1.41019 5.40453 1.4509 5.31708C1.49161 5.22962 1.55098 5.15161 1.62505 5.08824L5.79169 1.5378C5.91842 1.42938 6.08134 1.36959 6.25002 1.36959C6.41871 1.36959 6.58162 1.42938 6.70835 1.5378L10.875 5.08824C10.9491 5.15161 11.0084 5.22962 11.0491 5.31708C11.0899 5.40453 11.111 5.49942 11.1111 5.59545V11.5128Z" fill="#3B3D33"/>
</svg>
