<svg width="38" height="38" viewBox="0 0 38 38" fill="none" xmlns="http://www.w3.org/2000/svg">
<rect width="38" height="38" rx="6" fill="#F8F7F6"/>
<g clip-path="url(#clip0)">
<path d="M26.9881 14.4467C26.9881 14.4284 27.0007 14.4107 26.9998 14.3926L22.1172 19.0973L26.994 23.6517C26.9969 23.6192 26.9881 23.5863 26.9881 23.5531V14.4467Z" fill="#3B3D33"/>
<path d="M21.3722 19.8213L19.379 21.739C19.2781 21.8361 19.1479 21.8847 19.0175 21.8847C18.8899 21.8847 18.7623 21.8382 18.6621 21.7448L16.6743 19.8925L11.7656 24.6239C11.885 24.6668 12.0131 24.7 12.1473 24.7H25.8878C26.0871 24.7 26.2739 24.6394 26.4364 24.5489L21.3722 19.8213Z" fill="#3B3D33"/>
<path d="M19.0112 20.6455L26.4628 13.4674C26.2941 13.3671 26.0977 13.2998 25.8872 13.2998H12.1466C11.8725 13.2998 11.6214 13.4062 11.4258 13.5685L19.0112 20.6455Z" fill="#3B3D33"/>
<path d="M11 14.6221V23.5535C11 23.656 11.0236 23.7549 11.0491 23.8493L15.8969 19.1811L11 14.6221Z" fill="#3B3D33"/>
</g>
<defs>
<clipPath id="clip0">
<rect width="16" height="16" fill="white" transform="translate(11 11)"/>
</clipPath>
</defs>
</svg>
