<svg width="100" height="78" viewBox="0 0 100 78" fill="none" xmlns="http://www.w3.org/2000/svg">
<rect width="100" height="78" rx="10" fill="#F8F7F6"/>
<path d="M62.1645 27.0768L62.1643 27.0768C61.5878 27.0168 61.0215 27.2082 60.5813 27.6152C60.1974 27.9701 59.9975 28.352 59.8988 28.6647L59.5359 29.8147L58.7173 28.9292L55.4708 25.4174C55.3584 25.2958 55.1686 25.2883 55.0469 25.4008L52.3902 27.8567L51.5581 28.626L51.2427 27.5375C51.1353 27.1668 50.9365 26.8164 50.6223 26.4764C50.1924 26.0114 49.6364 25.7668 49.0544 25.7643L49.0544 25.7643C48.4942 25.7619 47.9277 25.9829 47.4641 26.4114C47.0006 26.8399 46.7358 27.3874 46.6942 27.946L62.1645 27.0768ZM62.1645 27.0768C62.7245 27.135 63.2876 27.421 63.742 27.9125C64.193 28.4004 64.4317 28.9891 64.446 29.5565L64.446 29.5565C64.4606 30.1382 64.2295 30.6817 63.7909 31.0871C63.4505 31.4019 63.0919 31.595 62.6872 31.6955L61.5381 31.9807L62.3418 32.85L65.5877 36.3612C65.7009 36.4837 65.6928 36.6726 65.5719 36.7843C64.6859 37.6033 63.1945 38.9819 62.2312 39.8727L59.582 42.322L59.5819 42.322L56.1733 45.473C56.0517 45.5855 55.8619 45.5781 55.7494 45.4564L52.7434 42.2047C53.0096 42.0772 53.3015 41.8934 53.5961 41.6211C54.2069 41.0564 54.54 40.2847 54.5193 39.457L54.5193 39.4568C54.4991 38.6599 54.1577 37.8951 53.5983 37.29C53.0377 36.6836 52.2986 36.2881 51.5067 36.2055L51.5065 36.2055C50.6821 36.1199 49.8842 36.3946 49.2753 36.9575C49.013 37.2 48.8022 37.4624 48.6339 37.7592L45.6324 34.5123C45.5199 34.3907 45.5274 34.2008 45.649 34.0884L48.5251 31.4296L49.3598 30.658L48.2951 30.2599M62.1645 27.0768L48.2951 30.2599M48.2951 30.2599C47.987 30.1448 47.6292 29.9413 47.2812 29.5649C46.8514 29.0999 46.6511 28.5264 46.6942 27.946L48.2951 30.2599Z" stroke="#3B3D33" stroke-width="1.4"/>
<path d="M46.7153 41.4108L46.7151 41.4108C46.1386 41.3507 45.5723 41.5422 45.1321 41.9492C44.7481 42.3041 44.5483 42.686 44.4496 42.9987L44.0867 44.1487L43.268 43.2632L40.0216 39.7514C39.9091 39.6297 39.7193 39.6223 39.5977 39.7348L36.941 42.1907L36.1089 42.9599L35.7935 41.8715C35.6861 41.5007 35.4873 41.1503 35.1731 40.8104C34.7432 40.3454 34.1872 40.1008 33.6052 40.0983L33.6051 40.0983C33.045 40.0959 32.4784 40.3169 32.0149 40.7454C31.5514 41.1739 31.2866 41.7214 31.245 42.28L46.7153 41.4108ZM46.7153 41.4108C47.2752 41.469 47.8384 41.755 48.2928 42.2465C48.7438 42.7344 48.9825 43.3231 48.9968 43.8904L48.9968 43.8905C49.0114 44.4722 48.7803 45.0157 48.3417 45.4211C48.0012 45.7359 47.6427 45.929 47.238 46.0294L46.0889 46.3146L46.8926 47.184L50.1385 50.6952C50.251 50.8169 50.2435 51.0067 50.1219 51.1191L47.6049 53.4459C47.4503 53.1052 47.2407 52.7955 46.9708 52.5035C46.4058 51.8923 45.6398 51.5403 44.8159 51.5366L44.8157 51.5366C44.0173 51.5333 43.2512 51.8535 42.6517 52.4077C42.0521 52.962 41.6718 53.7 41.6126 54.4958L41.6126 54.4959C41.5516 55.3178 41.8433 56.1094 42.4089 56.7213C42.6786 57.013 42.9722 57.2451 43.3018 57.4241L40.7241 59.807C40.6025 59.9195 40.4127 59.9121 40.3002 59.7904L37.2942 56.5387C37.5604 56.4112 37.8523 56.2274 38.1469 55.9551C38.7577 55.3904 39.0908 54.6187 39.0701 53.791L39.07 53.7908C39.0498 52.9938 38.7084 52.2291 38.1491 51.624C37.5885 51.0176 36.8494 50.6221 36.0575 50.5395L36.0573 50.5395C35.2329 50.4538 34.435 50.7286 33.8261 51.2915C33.5638 51.534 33.353 51.7964 33.1847 52.0932L30.1832 48.8463C30.0707 48.7246 30.0782 48.5348 30.1998 48.4224L33.0759 45.7636L33.9106 44.992L32.8458 44.5939M46.7153 41.4108L32.8458 44.5939M32.8458 44.5939C32.5378 44.4787 32.18 44.2753 31.832 43.8989C31.4021 43.4338 31.2019 42.8604 31.245 42.28L32.8458 44.5939Z" stroke="#3B3D33" stroke-width="1.4"/>
</svg>
