<svg width="100" height="78" viewBox="0 0 100 78" fill="none" xmlns="http://www.w3.org/2000/svg">
<rect width="100" height="78" rx="10" fill="#F8F7F6"/>
<path d="M47.7598 35.8496L51.9088 35.8402" stroke="#3B3D33" stroke-width="1.2" stroke-linecap="round"/>
<circle cx="40.7244" cy="44.0193" r="7.21463" stroke="#3B3D33" stroke-width="1.2"/>
<circle cx="59.2771" cy="44.0193" r="7.21463" stroke="#3B3D33" stroke-width="1.2"/>
<path d="M64.7369 39.374L60.1211 30.707M34.6094 40.1943L39.5568 30.707" stroke="#3B3D33" stroke-width="1.2"/>
<path d="M60.4996 31.4432C59.7573 29.7129 58.0383 28.501 56.0362 28.501C53.3551 28.501 51.1816 30.6744 51.1816 33.3555C51.1816 34.1372 51.473 35.0303 51.8012 35.6844" stroke="#3B3D33" stroke-width="1.2"/>
<path d="M47.8687 35.7128C48.0185 35.442 48.1396 35.163 48.2331 34.8794C48.3448 34.5409 48.4171 34.1958 48.4517 33.85C48.6392 31.9766 47.7213 30.0842 45.9692 29.1155C43.6228 27.8182 40.6691 28.6687 39.3718 31.0151" stroke="#3B3D33" stroke-width="1.2"/>
<path d="M47.8281 42.6777H51.8823" stroke="#3B3D33" stroke-width="1.2"/>
<path d="M63.192 46.417C63.5505 45.7919 63.7555 45.0675 63.7555 44.2952C63.7555 41.9365 61.8434 40.0244 59.4847 40.0244C59.2294 40.0244 58.9793 40.0468 58.7363 40.0898" stroke="#3B3D33" stroke-width="1.2" stroke-linecap="round"/>
<path d="M41.5969 39.9789C40.8897 39.8406 40.1378 39.8797 39.4067 40.1282C37.1735 40.8874 35.9785 43.3131 36.7376 45.5463C36.8198 45.788 36.9215 46.0176 37.0404 46.2338" stroke="#3B3D33" stroke-width="1.2" stroke-linecap="round"/>
</svg>
