<svg width="38" height="38" viewBox="0 0 38 38" fill="none" xmlns="http://www.w3.org/2000/svg">
<rect width="38" height="38" rx="6" fill="#F8F7F6"/>
<path d="M27.2 13.7252C26.5912 14.0136 25.9473 14.2043 25.2884 14.2913C25.9835 13.8378 26.5044 13.1245 26.7545 12.2836C26.1013 12.7082 25.3862 13.0073 24.6404 13.168C24.1419 12.5777 23.478 12.1848 22.7529 12.0508C22.0279 11.9169 21.2826 12.0495 20.634 12.4279C19.9854 12.8063 19.4701 13.4091 19.169 14.1416C18.868 14.8742 18.7981 15.6952 18.9704 16.4759C17.6496 16.4029 16.3577 16.0274 15.1785 15.3737C13.9993 14.72 12.9593 13.8028 12.1259 12.6816C11.8336 13.2389 11.68 13.8701 11.6804 14.5124C11.6794 15.1088 11.8134 15.6963 12.0706 16.2225C12.3278 16.7487 12.7002 17.1973 13.1546 17.5284C12.6265 17.5127 12.1096 17.3579 11.648 17.0773V17.1215C11.652 17.9572 11.9202 18.7658 12.4072 19.4105C12.8943 20.0551 13.5703 20.4963 14.321 20.6593C14.032 20.7554 13.732 20.806 13.43 20.8097C13.2209 20.807 13.0124 20.7863 12.8063 20.7478C13.0201 21.4667 13.4337 22.0949 13.9898 22.5451C14.5458 22.9953 15.2165 23.2451 15.9086 23.2596C14.7399 24.2637 13.2971 24.8117 11.81 24.8163C11.5392 24.8172 11.2687 24.7995 11 24.7632C12.5183 25.8336 14.2876 26.4019 16.0949 26.3994C17.3421 26.4136 18.5793 26.1562 19.7343 25.6424C20.8894 25.1286 21.9391 24.3686 22.8221 23.4069C23.7052 22.4451 24.4039 21.3009 24.8774 20.041C25.3509 18.7811 25.5898 17.4308 25.58 16.069C25.58 15.9187 25.58 15.7595 25.58 15.6003C26.2156 15.0827 26.7638 14.4482 27.2 13.7252Z" fill="#3B3D33"/>
</svg>
