<svg width="32" height="33" viewBox="0 0 32 33" fill="none" xmlns="http://www.w3.org/2000/svg">
<mask id="path-1-inside-1" fill="white">
<path fill-rule="evenodd" clip-rule="evenodd" d="M2.60361 9.41788C0.957078 10.7468 0 12.7492 0 14.8651V28.9987C0 31.2077 1.79068 32.9985 3.9997 32.9987L27.9997 33.0005C30.209 33.0006 32 31.2097 32 29.0005V14.8544C32 12.7459 31.0496 10.7498 29.4129 9.4206L19.1906 1.11873C17.3583 -0.36931 14.735 -0.373303 12.8982 1.10916L2.60361 9.41788ZM13.4254 19.2045H18.3757C19.2042 19.2045 19.8757 19.8761 19.8757 20.7045V31.0257H11.9254V20.7045C11.9254 19.8761 12.597 19.2045 13.4254 19.2045Z"/>
</mask>
<path d="M2.60361 9.41788L1.3475 7.86155L1.3475 7.86155L2.60361 9.41788ZM3.9997 32.9987L3.99985 30.9987H3.99985L3.9997 32.9987ZM27.9997 33.0005L27.9996 35.0005L27.9997 33.0005ZM29.4129 9.4206L28.1521 10.9731L29.4129 9.4206ZM19.1906 1.11873L20.4514 -0.43378V-0.43378L19.1906 1.11873ZM12.8982 1.10916L14.1543 2.66549V2.66549L12.8982 1.10916ZM19.8757 31.0257V33.0257H21.8757V31.0257H19.8757ZM11.9254 31.0257H9.92542V33.0257H11.9254V31.0257ZM2 14.8651C2 13.3537 2.68363 11.9234 3.85972 10.9742L1.3475 7.86155C-0.769472 9.57014 -2 12.1446 -2 14.8651H2ZM2 28.9987V14.8651H-2V28.9987H2ZM3.99985 30.9987C2.89534 30.9986 2 30.1032 2 28.9987H-2C-2 32.3122 0.686021 34.9984 3.99955 34.9987L3.99985 30.9987ZM27.9998 31.0005L3.99985 30.9987L3.99955 34.9987L27.9996 35.0005L27.9998 31.0005ZM30 29.0005C30 30.1051 29.1045 31.0006 27.9998 31.0005L27.9996 35.0005C31.3134 35.0007 34 32.3144 34 29.0005H30ZM30 14.8544V29.0005H34V14.8544H30ZM28.1521 10.9731C29.3212 11.9225 30 13.3483 30 14.8544H34C34 12.1435 32.7781 9.57707 30.6738 7.86809L28.1521 10.9731ZM17.9298 2.67124L28.1521 10.9731L30.6738 7.86809L20.4514 -0.43378L17.9298 2.67124ZM14.1543 2.66549C15.2564 1.77602 16.8304 1.77841 17.9298 2.67124L20.4514 -0.43378C17.8863 -2.51703 14.2136 -2.52263 11.6421 -0.44718L14.1543 2.66549ZM3.85972 10.9742L14.1543 2.66549L11.6421 -0.44718L1.3475 7.86155L3.85972 10.9742ZM18.3757 17.2045H13.4254V21.2045H18.3757V17.2045ZM21.8757 20.7045C21.8757 18.7715 20.3087 17.2045 18.3757 17.2045V21.2045C18.0996 21.2045 17.8757 20.9806 17.8757 20.7045H21.8757ZM21.8757 31.0257V20.7045H17.8757V31.0257H21.8757ZM11.9254 33.0257H19.8757V29.0257H11.9254V33.0257ZM9.92542 20.7045V31.0257H13.9254V20.7045H9.92542ZM13.4254 17.2045C11.4924 17.2045 9.92542 18.7715 9.92542 20.7045H13.9254C13.9254 20.9806 13.7016 21.2045 13.4254 21.2045V17.2045Z" fill="#A4ADAF" mask="url(#path-1-inside-1)"/>
</svg>
